<svg xmlns="http://www.w3.org/2000/svg" width="364.001" height="93.118" viewBox="0 0 364.001 93.118">
  <g id="logo" transform="translate(0.329 -13.697)">
    <text id="FLovers_" data-name="FLovers " transform="translate(69.089 77.613)" fill="  #a60059" font-size="57" font-family="LucidaHandwriting-Italic, Lucida Handwriting" font-style="italic" letter-spacing="-0.072em"><tspan x="0" y="0">FLovers </tspan></text>
    <text id="FLovers_2" data-name="FLovers " transform="translate(70.838 77.613)" fill="#a60059" font-size="57" font-family="LucidaHandwriting-Italic, Lucida Handwriting" font-style="italic" letter-spacing="-0.072em" opacity="0.5"><tspan x="0" y="0">FLovers </tspan></text>
    <path id="Path_19" data-name="Path 19" d="M6260.491,263.489s-37.45,2.563-36.377,28.538,27.557,25.205,57.339,23.163,24.686-8.389,54.2-4.925,31.954.005,68.576,3.165,45.363-.046,76.491-2.594,43.7,8.505,43.7,8.505-12.508-7.384-43.7-4.428-39.442,4.377-76.491,1.574-40.858.306-70-3.058-21.318,2.624-51.142,4.281-67.513,4.688-65.071-25.684S6260.491,263.489,6260.491,263.489Z" transform="translate(-6161.615 -225.027)" fill="#a60059"/>
    <path id="Path_32" data-name="Path 32" d="M6260.491,263.489s-37.45,2.563-36.377,28.538,27.557,25.205,57.339,23.163,24.686-8.389,54.2-4.925,31.954.005,68.576,3.165,45.363-.046,76.491-2.594,43.7,8.505,43.7,8.505-12.508-7.384-43.7-4.428-39.442,4.377-76.491,1.574-40.858.306-70-3.058-21.318,2.624-51.142,4.281-67.513,4.688-65.071-25.684S6260.491,263.489,6260.491,263.489Z" transform="translate(-6160.74 -224.248)" fill="#a60059" opacity="0.5"/>
    <path id="Path_21" data-name="Path 21" d="M27,.669s-8.022.451-13.633,3.093S7.786,7.4,4.552,11.234A20.434,20.434,0,0,0,.426,19.113l7.133,9.209s2.65-.39,6.509-3.707,5.7-3.574,8.928-9.561S27,.669,27,.669Z" transform="matrix(0.208, -0.978, 0.978, 0.208, 50.587, 43.26)" fill="#a60059"/>
    <path id="Path_28" data-name="Path 28" d="M27,.669s-8.022.451-13.633,3.093S7.786,7.4,4.552,11.234A20.434,20.434,0,0,0,.426,19.113l7.133,9.209s2.65-.39,6.509-3.707,5.7-3.574,8.928-9.561S27,.669,27,.669Z" transform="matrix(0.208, -0.978, 0.978, 0.208, 50.029, 40.868)" fill="#a60059" opacity="0.5"/>
    <path id="Path_25" data-name="Path 25" d="M29.41,29.254s-8.308-1.2-14.318-4.312-6.059-4.08-9.72-8.138A24.333,24.333,0,0,1,.449,8.71L7.019.379s2.765.632,7.026,4.24S20.222,8.652,24.064,14.81,29.41,29.254,29.41,29.254Z" transform="translate(71.004 81.903) rotate(123)" fill="#a60059"/>
    <path id="Path_31" data-name="Path 31" d="M29.41,29.254s-8.308-1.2-14.318-4.312-6.059-4.08-9.72-8.138A24.333,24.333,0,0,1,.449,8.71L7.019.379s2.765.632,7.026,4.24S20.222,8.652,24.064,14.81,29.41,29.254,29.41,29.254Z" transform="translate(69.063 82.356) rotate(123)" fill="#a60059" opacity="0.5"/>
    <path id="Path_22" data-name="Path 22" d="M38.6-1.309S27.26.372,19.07,4.769,10.815,10.537,5.835,16.28A34.648,34.648,0,0,0-.855,27.739l9,11.822s3.772-.889,9.574-5.992,8.415-5.7,13.634-14.421S38.6-1.309,38.6-1.309Z" transform="matrix(-0.292, -0.956, 0.956, -0.292, 35.583, 63.967)" fill="#a60059"/>
    <path id="Path_27" data-name="Path 27" d="M38.6-1.309S27.26.372,19.07,4.769,10.815,10.537,5.835,16.28A34.648,34.648,0,0,0-.855,27.739l9,11.822s3.772-.889,9.574-5.992,8.415-5.7,13.634-14.421S38.6-1.309,38.6-1.309Z" transform="matrix(-0.292, -0.956, 0.956, -0.292, 34.309, 62.173)" fill="#a60059" opacity="0.5"/>
    <path id="Path_24" data-name="Path 24" d="M43.873,39.768s-12.234-2-21.163-6.4S13.672,27.682,8.154,22.145A34.151,34.151,0,0,1,.637,11.219L9.977.551s4.08.971,10.463,5.944,9.208,5.629,15.067,13.947S43.873,39.768,43.873,39.768Z" transform="translate(69.202 76.034) rotate(142)" fill="#a60059"/>
    <path id="Path_30" data-name="Path 30" d="M43.873,39.768s-12.234-2-21.163-6.4S13.672,27.682,8.154,22.145A34.151,34.151,0,0,1,.637,11.219L9.977.551s4.08.971,10.463,5.944,9.208,5.629,15.067,13.947S43.873,39.768,43.873,39.768Z" transform="translate(67.458 75.434) rotate(142)" fill="#a60059" opacity="0.5"/>
    <path id="Path_23" data-name="Path 23" d="M47.937-2.421S33.923-.027,23.7,5.339s-10.343,6.936-16.653,13.7A41.989,41.989,0,0,0-1.54,32.416L9.187,45.545s4.674-1.174,11.976-7.247S31.7,31.433,38.4,21.253,47.937-2.421,47.937-2.421Z" transform="translate(27.63 88.329) rotate(-119)" fill="#a60059"/>
    <path id="Path_29" data-name="Path 29" d="M47.937-2.421S33.923-.027,23.7,5.339s-10.343,6.936-16.653,13.7A41.989,41.989,0,0,0-1.54,32.416L9.187,45.545s4.674-1.174,11.976-7.247S31.7,31.433,38.4,21.253,47.937-2.421,47.937-2.421Z" transform="translate(25.028 86.843) rotate(-119)" fill="#a60059" opacity="0.5"/>
  </g>
</svg>
